<?xml version="1.0" encoding="iso-8859-1"?>
<!-- Generator: Adobe Illustrator 16.0.0, SVG Export Plug-In . SVG Version: 6.00 Build 0)  -->
<!DOCTYPE svg PUBLIC "-//W3C//DTD SVG 1.1//EN" "http://www.w3.org/Graphics/SVG/1.1/DTD/svg11.dtd">
<svg version="1.1" id="Capa_1" xmlns="http://www.w3.org/2000/svg" xmlns:xlink="http://www.w3.org/1999/xlink" x="0px" y="0px"
	 width="47.854px" height="47.854px" viewBox="0 0 47.854 47.854" style="enable-background:new 0 0 47.854 47.854;"
	 xml:space="preserve">
<g>
	<g id="Dashboard">
		<path d="M23.939,47.853h-0.016C10.736,47.853,0.004,37.121,0,23.93C0.004,10.735,10.738,0.001,23.929,0.001
			c6.393,0,12.401,2.488,16.92,7.008c4.52,4.519,7.006,10.525,7.004,16.915c0.004,6.39-2.481,12.397-6.998,16.919
			C36.337,45.362,30.33,47.853,23.939,47.853z M23.929,2.001C11.841,2.001,2.004,11.838,2,23.93
			c0.004,12.088,9.839,21.922,21.925,21.922h0.015c5.855,0,11.36-2.281,15.5-6.424s6.418-9.647,6.414-15.505
			c0.002-5.855-2.276-11.36-6.418-15.501C35.294,4.281,29.787,2.001,23.929,2.001z"/>
		<path d="M23.915,43.284h-0.004c-5.173-0.001-10.035-2.016-13.691-5.672c-3.656-3.656-5.669-8.519-5.668-13.688
			C4.55,13.253,13.233,4.568,23.909,4.565c0,0,0.001,0,0.002,0c5.17,0,10.03,2.014,13.688,5.671
			c3.657,3.657,5.672,8.519,5.67,13.688c0.002,5.169-2.013,10.03-5.668,13.688C33.945,41.271,29.084,43.284,23.915,43.284z
			 M23.911,6.565c-0.001,0-0.001,0-0.002,0C14.337,6.568,6.55,14.355,6.552,23.924c-0.001,4.638,1.804,8.996,5.082,12.274
			c3.278,3.279,7.639,5.085,12.277,5.086l0.004,1v-1c4.635,0,8.993-1.807,12.272-5.086c3.277-3.28,5.084-7.639,5.082-12.274
			c0.002-4.635-1.805-8.994-5.084-12.273C32.906,8.371,28.547,6.565,23.911,6.565z"/>
		<g>
			<path d="M24.062,12.347c-0.276,0-0.5-0.224-0.5-0.5V9.558c0-0.276,0.224-0.5,0.5-0.5c0.275,0,0.5,0.224,0.5,0.5v2.289
				C24.562,12.123,24.339,12.347,24.062,12.347z"/>
			<path d="M27.223,12.769c-0.043,0-0.086-0.006-0.131-0.018c-0.267-0.071-0.425-0.346-0.354-0.612l0.595-2.211
				c0.071-0.266,0.345-0.424,0.612-0.353c0.267,0.071,0.425,0.346,0.353,0.612l-0.594,2.211
				C27.645,12.621,27.441,12.769,27.223,12.769z"/>
			<path d="M30.164,13.994c-0.085,0-0.171-0.021-0.25-0.067c-0.239-0.138-0.321-0.443-0.184-0.683l1.146-1.981
				c0.138-0.239,0.444-0.32,0.683-0.183c0.239,0.138,0.321,0.443,0.184,0.683l-1.145,1.981
				C30.505,13.904,30.336,13.994,30.164,13.994z"/>
			<path d="M32.689,15.939c-0.129,0-0.256-0.049-0.354-0.146c-0.194-0.195-0.194-0.512,0-0.707l1.618-1.618
				c0.195-0.195,0.512-0.195,0.707,0c0.195,0.195,0.195,0.512,0,0.707l-1.618,1.618C32.945,15.891,32.816,15.939,32.689,15.939z"/>
			<path d="M34.625,18.472c-0.172,0-0.341-0.09-0.434-0.25c-0.139-0.239-0.057-0.545,0.184-0.683l1.982-1.145
				c0.238-0.14,0.545-0.057,0.683,0.183c0.14,0.239,0.058,0.545-0.183,0.683l-1.982,1.145C34.796,18.45,34.71,18.472,34.625,18.472z
				"/>
			<path d="M35.84,21.419c-0.221,0-0.423-0.147-0.482-0.371c-0.071-0.267,0.086-0.54,0.354-0.612l2.21-0.592
				c0.271-0.065,0.54,0.089,0.612,0.354c0.07,0.267-0.088,0.54-0.354,0.612l-2.211,0.592C35.926,21.413,35.883,21.419,35.84,21.419z
				"/>
			<path d="M36.249,24.581c-0.276,0-0.5-0.225-0.5-0.5c0-0.275,0.224-0.5,0.5-0.5l2.288-0.002l0,0c0.275,0,0.5,0.224,0.5,0.5
				c0,0.275-0.225,0.5-0.5,0.5L36.249,24.581L36.249,24.581z"/>
			<path d="M20.886,12.759c-0.221,0-0.423-0.147-0.483-0.37l-0.593-2.211c-0.071-0.268,0.087-0.541,0.354-0.613
				c0.27-0.064,0.541,0.087,0.613,0.354l0.593,2.211c0.071,0.268-0.087,0.541-0.354,0.613
				C20.972,12.753,20.929,12.759,20.886,12.759z"/>
			<path d="M17.924,13.98c-0.172,0-0.341-0.09-0.433-0.25l-1.145-1.982c-0.139-0.239-0.057-0.545,0.183-0.683
				c0.238-0.14,0.545-0.057,0.683,0.183l1.145,1.982c0.139,0.239,0.057,0.545-0.183,0.683C18.095,13.958,18.009,13.98,17.924,13.98z
				"/>
			<path d="M15.379,15.925c-0.128,0-0.256-0.049-0.354-0.146l-1.618-1.617c-0.195-0.195-0.195-0.512,0-0.707
				c0.195-0.195,0.512-0.195,0.707,0l1.618,1.617c0.195,0.195,0.195,0.512,0,0.707C15.635,15.876,15.507,15.925,15.379,15.925z"/>
			<path d="M13.424,18.464c-0.085,0-0.171-0.021-0.25-0.067l-1.981-1.145c-0.239-0.138-0.321-0.443-0.183-0.683
				c0.138-0.239,0.444-0.32,0.683-0.183l1.981,1.146c0.239,0.138,0.321,0.443,0.183,0.683
				C13.765,18.374,13.596,18.464,13.424,18.464z"/>
			<path d="M12.193,21.421c-0.043,0-0.086-0.006-0.129-0.017l-2.211-0.592C9.585,20.74,9.427,20.466,9.499,20.2
				c0.072-0.267,0.352-0.419,0.612-0.354l2.211,0.592c0.268,0.072,0.426,0.346,0.354,0.612
				C12.616,21.273,12.414,21.421,12.193,21.421z"/>
			<path d="M11.771,24.597h-2.29c-0.276,0-0.5-0.224-0.5-0.5c0-0.276,0.224-0.5,0.5-0.5h2.289c0.276,0,0.5,0.224,0.5,0.5
				C12.27,24.373,12.047,24.597,11.771,24.597z"/>
		</g>
		<path d="M7.845,33.552c-0.228,0-0.456-0.076-0.645-0.236c-0.422-0.354-0.475-0.985-0.118-1.408
			c4.216-4.994,10.378-7.858,16.904-7.858c0.003,0,0.005,0,0.007,0c6.528,0,12.692,2.864,16.909,7.857
			c0.355,0.422,0.304,1.054-0.118,1.409c-0.425,0.358-1.056,0.304-1.409-0.119c-3.836-4.543-9.441-7.147-15.382-7.147
			c-0.002,0-0.004,0-0.006,0c-5.938,0-11.541,2.604-15.378,7.149C8.412,33.431,8.13,33.552,7.845,33.552z"/>
		<g>
			<path d="M24.199,35.327c-1.85,0-3.354-1.504-3.354-3.354c0-1.849,1.504-3.353,3.354-3.353c1.848,0,3.352,1.504,3.352,3.353
				C27.551,33.823,26.047,35.327,24.199,35.327z M24.199,30.622c-0.746,0-1.354,0.605-1.354,1.354c0,0.746,0.607,1.353,1.354,1.353
				c0.744,0,1.352-0.606,1.352-1.353C25.551,31.228,24.943,30.622,24.199,30.622z"/>
			<path d="M24.199,30.583c-0.553,0-1-0.447-1-1V15.724c0-0.553,0.447-1,1-1c0.553,0,1,0.447,1,1v13.859
				C25.199,30.136,24.752,30.583,24.199,30.583z"/>
			<path d="M24.199,39.864c-0.553,0-1-0.447-1-1v-4.537c0-0.553,0.447-1,1-1c0.553,0,1,0.447,1,1v4.537
				C25.199,39.417,24.752,39.864,24.199,39.864z"/>
		</g>
	</g>
	<g>
	</g>
	<g>
	</g>
	<g>
	</g>
	<g>
	</g>
	<g>
	</g>
	<g>
	</g>
	<g>
	</g>
	<g>
	</g>
	<g>
	</g>
	<g>
	</g>
	<g>
	</g>
	<g>
	</g>
	<g>
	</g>
	<g>
	</g>
	<g>
	</g>
</g>
<g>
</g>
<g>
</g>
<g>
</g>
<g>
</g>
<g>
</g>
<g>
</g>
<g>
</g>
<g>
</g>
<g>
</g>
<g>
</g>
<g>
</g>
<g>
</g>
<g>
</g>
<g>
</g>
<g>
</g>
</svg>
