<?xml version="1.0" standalone="no"?>
<!DOCTYPE svg PUBLIC "-//W3C//DTD SVG 20010904//EN"
 "http://www.w3.org/TR/2001/REC-SVG-20010904/DTD/svg10.dtd">
<svg version="1.0" xmlns="http://www.w3.org/2000/svg"
 width="50.000000pt" height="50.000000pt" viewBox="0 0 50.000000 50.000000"
 preserveAspectRatio="xMidYMid meet">
<metadata>
Created by potrace 1.15, written by Peter Selinger 2001-2017
</metadata>
<g transform="translate(0.000000,50.000000) scale(0.100000,-0.100000)"
fill="#000000" stroke="none">
<path d="M3 484 c-8 -20 28 -84 47 -84 16 0 160 -139 160 -155 0 -5 -6 -1 -13
9 -11 16 -15 15 -42 -14 -16 -17 -39 -30 -52 -30 -32 0 -80 -26 -93 -49 -5
-11 -10 -38 -10 -61 0 -58 42 -100 100 -100 23 0 50 5 61 10 23 13 49 61 49
91 0 13 10 34 23 47 13 15 18 26 11 29 -6 2 -20 10 -30 18 -18 13 -18 14 4 8
13 -3 31 -17 39 -32 9 -14 48 -59 87 -99 57 -58 76 -72 101 -72 39 0 55 16 55
55 0 26 -14 45 -79 108 -43 42 -85 77 -92 77 -9 0 -7 4 4 11 11 6 31 9 45 6
65 -12 122 47 122 127 0 43 -14 46 -52 9 l-28 -27 -27 27 -27 27 27 28 c15 15
27 33 27 40 0 19 -81 14 -117 -8 -42 -25 -56 -54 -48 -97 4 -25 2 -40 -10 -53
-15 -17 -15 -19 2 -29 10 -6 14 -11 8 -11 -16 0 -155 143 -155 160 0 16 -52
50 -76 50 -8 0 -17 -7 -21 -16z"/>
</g>
</svg>
